<svg xmlns="http://www.w3.org/2000/svg" viewBox="0 0 1191 842" role="img" aria-label="Base plate &amp; karet"><rect width="1191" height="842" fill="#f5f3ed"/><path d="M289.35,496.00L454.35,496.00" stroke="#555555" fill="none" stroke-width=".8"/><path d="M454.35,496.00L454.35,485.00" stroke="#555555" fill="none" stroke-width=".8"/><path d="M454.35,485.00L289.35,485.00" stroke="#555555" fill="none" stroke-width=".8"/><path d="M289.35,485.00L289.35,496.00" stroke="#555555" fill="none" stroke-width=".8"/><path d="M289.35,485.00L454.35,485.00" stroke="#303030" fill="none" stroke-width=".8"/><path d="M454.35,485.00L454.35,476.20" stroke="#303030" fill="none" stroke-width=".8"/><path d="M454.35,476.20L289.35,476.20" stroke="#303030" fill="none" stroke-width=".8"/><path d="M289.35,476.20L289.35,485.00" stroke="#303030" fill="none" stroke-width=".8"/><path d="M344.35,476.20L399.35,476.20" stroke="#111111" fill="none" stroke-width=".8"/><path d="M399.35,476.20L399.35,278.20" stroke="#111111" fill="none" stroke-width=".8"/><path d="M399.35,278.20L344.35,278.20" stroke="#111111" fill="none" stroke-width=".8"/><path d="M344.35,278.20L344.35,476.20" stroke="#111111" fill="none" stroke-width=".8"/><path d="M346.88,476.20L396.82,476.20" stroke="#999999" fill="none" stroke-width=".8"/><path d="M396.82,476.20L396.82,278.20" stroke="#999999" fill="none" stroke-width=".8"/><path d="M396.82,278.20L346.88,278.20" stroke="#999999" fill="none" stroke-width=".8"/><path d="M346.88,278.20L346.88,476.20" stroke="#999999" fill="none" stroke-width=".8"/><path d="M250.85,496.00L492.85,496.00" stroke="#999999" fill="none" stroke-width=".8"/><path d="M289.35,584.00L454.35,584.00" stroke="#222222" fill="none" stroke-width=".8"/><path d="M289.35,587.30L289.35,580.70" stroke="#222222" fill="none" stroke-width=".8"/><path d="M454.35,587.30L454.35,580.70" stroke="#222222" fill="none" stroke-width=".8"/><path d="M228.85,496.00L228.85,485.00" stroke="#222222" fill="none" stroke-width=".8"/><path d="M289.35,496.00L226.87,496.00" stroke="#222222" fill="none" stroke-width=".8"/><path d="M230.83,497.98L226.87,494.02" stroke="#222222" fill="none" stroke-width=".8"/><path d="M289.35,485.00L226.87,485.00" stroke="#222222" fill="none" stroke-width=".8"/><path d="M230.83,486.98L226.87,483.02" stroke="#222222" fill="none" stroke-width=".8"/><path d="M195.85,485.00L195.85,476.20" stroke="#222222" fill="none" stroke-width=".8"/><path d="M289.35,485.00L193.87,485.00" stroke="#222222" fill="none" stroke-width=".8"/><path d="M197.83,486.98L193.87,483.02" stroke="#222222" fill="none" stroke-width=".8"/><path d="M289.35,476.20L193.87,476.20" stroke="#222222" fill="none" stroke-width=".8"/><path d="M197.83,478.18L193.87,474.22" stroke="#222222" fill="none" stroke-width=".8"/><path d="M157.35,496.00L157.35,476.20" stroke="#222222" fill="none" stroke-width=".8"/><path d="M289.35,496.00L155.04,496.00" stroke="#222222" fill="none" stroke-width=".8"/><path d="M159.66,498.31L155.04,493.69" stroke="#222222" fill="none" stroke-width=".8"/><path d="M289.35,476.20L155.04,476.20" stroke="#222222" fill="none" stroke-width=".8"/><path d="M159.66,478.51L155.04,473.89" stroke="#222222" fill="none" stroke-width=".8"/><path d="M344.35,228.70L399.35,228.70" stroke="#222222" fill="none" stroke-width=".8"/><path d="M344.35,278.20L344.35,226.06" stroke="#222222" fill="none" stroke-width=".8"/><path d="M341.71,231.34L346.99,226.06" stroke="#222222" fill="none" stroke-width=".8"/><path d="M399.35,278.20L399.35,226.06" stroke="#222222" fill="none" stroke-width=".8"/><path d="M396.71,231.34L401.99,226.06" stroke="#222222" fill="none" stroke-width=".8"/><path d="M734.86,496.00L899.86,496.00" stroke="#555555" fill="none" stroke-width=".8"/><path d="M899.86,496.00L899.86,331.00" stroke="#555555" fill="none" stroke-width=".8"/><path d="M899.86,331.00L734.86,331.00" stroke="#555555" fill="none" stroke-width=".8"/><path d="M734.86,331.00L734.86,496.00" stroke="#555555" fill="none" stroke-width=".8"/><path d="M789.86,468.50L844.86,468.50" stroke="#111111" fill="none" stroke-width=".8"/><path d="M844.86,468.50L844.86,358.50" stroke="#111111" fill="none" stroke-width=".8"/><path d="M844.86,358.50L789.86,358.50" stroke="#111111" fill="none" stroke-width=".8"/><path d="M789.86,358.50L789.86,468.50" stroke="#111111" fill="none" stroke-width=".8"/><path d="M734.86,537.80L899.86,537.80" stroke="#222222" fill="none" stroke-width=".8"/><path d="M734.86,496.00L734.86,534.50" stroke="#222222" fill="none" stroke-width=".8"/><path d="M731.56,541.10L738.15,534.50" stroke="#222222" fill="none" stroke-width=".8"/><path d="M899.86,496.00L899.86,534.50" stroke="#222222" fill="none" stroke-width=".8"/><path d="M896.56,541.10L903.15,534.50" stroke="#222222" fill="none" stroke-width=".8"/><path d="M938.36,496.00L938.36,331.00" stroke="#222222" fill="none" stroke-width=".8"/><path d="M899.86,496.00L935.06,496.00" stroke="#222222" fill="none" stroke-width=".8"/><path d="M941.65,499.30L935.06,492.70" stroke="#222222" fill="none" stroke-width=".8"/><path d="M899.86,331.00L935.06,331.00" stroke="#222222" fill="none" stroke-width=".8"/><path d="M941.65,334.30L935.06,327.70" stroke="#222222" fill="none" stroke-width=".8"/><text x="492.85" y="488.30" font-family="Arial" font-size="8.80" fill="#26302b">karet 10</text><text x="492.85" y="472.90" font-family="Arial" font-size="8.80" fill="#26302b">plat 8</text><text x="443.35" y="386.00" font-family="Arial" font-size="8.80" fill="#26302b">RHS 50x100x2,3</text><text x="365.25" y="578.72" font-family="Arial" font-size="8.80" fill="#26302b">150</text><text x="232.81" y="490.50" font-family="Arial" font-size="8.00" fill="#26302b">10</text><text x="199.81" y="480.60" font-family="Arial" font-size="8.00" fill="#26302b">8</text><text x="161.97" y="486.10" font-family="Arial" font-size="8.00" fill="#26302b">18 total</text><text x="367.45" y="223.42" font-family="Arial" font-size="8.80" fill="#26302b">50</text><text x="809.11" y="531.20" font-family="Arial" font-size="11.00" fill="#26302b">150</text><text x="944.95" y="413.50" font-family="Arial" font-size="11.00" fill="#26302b">150</text><text x="734.86" y="298.00" font-family="Arial" font-size="11.00" fill="#26302b">DENAH DUDUKAN</text><text x="734.86" y="589.50" font-family="Arial" font-size="9.90" fill="#26302b">PLAT 150 x 150 x 8</text><text x="734.86" y="617.00" font-family="Arial" font-size="9.90" fill="#26302b">KARET 150 x 150 x 10</text><text x="217.85" y="177.00" font-family="Arial" font-size="13.20" fill="#26302b">RHS 50 x 100 x 2,3 / DIMENSI NOMINAL</text><text x="38" y="50" font-family="Arial" font-size="20" fill="#1c292c">METTA / LT 04</text><text x="38" y="90" font-family="Arial" font-size="24" fill="#1c292c">S-10   BASE PLATE &amp; KARET</text><text x="905" y="46" font-family="Arial" font-size="12" fill="#1c292c">R03 / 08.09.2026</text><text x="905" y="67" font-family="Arial" font-size="11" fill="#1c292c">LOD 200 / KOORDINASI</text><text x="38" y="806" font-family="Arial" font-size="10" fill="#1c292c">SATUAN: mm | PDF: FIT / NTS | DIMENSI NOMINAL KOORDINASI | DETAIL TERSEDIA DIPERTAHANKAN</text><text x="38" y="727" font-family="Arial" font-size="11">Dudukan sesuai model: karet 10, base plate 8, kolom mulai +18 mm.</text><text x="38" y="749" font-family="Arial" font-size="11">Tanpa angkur ke pelat LT4 mengikuti konsep sumber. Las dan tahan geser/angkat belum dirancang.</text><text x="38" y="778" font-family="Arial" font-size="10">LOD 200: bentuk, ukuran dan posisi perkiraan. Detail sambungan mengikuti status masing-masing.</text></svg>