<svg xmlns="http://www.w3.org/2000/svg" viewBox="0 0 1400 950"><rect width="1400" height="950" fill="#faf9f5"/><style>text{font:17px Arial;fill:#173d45}.title{font-size:28px;font-weight:bold}.small{font-size:14px}.dim{stroke:#52747b;stroke-width:1;fill:none}</style><text x="45" y="50" class="title">V2-C / K05 · Jadwal koordinat kolom</text><text x="45" y="82">Satuan mm · arsip geometri R04 + usulan R08 · dimensi dibulatkan 1 mm</text><text x="45" y="140" class="small">ID sumber</text><text x="340" y="140" class="small">X pusat</text><text x="510" y="140" class="small">Y pusat</text><text x="680" y="140" class="small">Z bawah</text><text x="850" y="140" class="small">Z atas</text><text x="1020" y="140" class="small">Panjang solid</text><text x="1210" y="140" class="small">Dasar</text><text x="45" y="170" class="small">SC-L4-P01</text><text x="340" y="170" class="small">4900.0</text><text x="510" y="170" class="small">3950.0</text><text x="680" y="170" class="small">11.0</text><text x="850" y="170" class="small">1657.0</text><text x="1020" y="170" class="small">1646.0</text><text x="1210" y="170" class="small">Usulan</text><path class="dim" d="M45.00 178.00L1355.00 178.00"/><text x="45" y="194" class="small">SC-L4-P11</text><text x="340" y="194" class="small">5400.0</text><text x="510" y="194" class="small">3950.0</text><text x="680" y="194" class="small">11.0</text><text x="850" y="194" class="small">1657.0</text><text x="1020" y="194" class="small">1646.0</text><text x="1210" y="194" class="small">Usulan</text><path class="dim" d="M45.00 202.00L1355.00 202.00"/><text x="45" y="218" class="small">SC-R4-P01</text><text x="340" y="218" class="small">12300.1</text><text x="510" y="218" class="small">3950.0</text><text x="680" y="218" class="small">11.0</text><text x="850" y="218" class="small">1657.0</text><text x="1020" y="218" class="small">1646.0</text><text x="1210" y="218" class="small">Usulan</text><path class="dim" d="M45.00 226.00L1355.00 226.00"/><text x="45" y="242" class="small">SC-R4-P11</text><text x="340" y="242" class="small">12800.1</text><text x="510" y="242" class="small">3950.0</text><text x="680" y="242" class="small">11.0</text><text x="850" y="242" class="small">1657.0</text><text x="1020" y="242" class="small">1646.0</text><text x="1210" y="242" class="small">Usulan</text><path class="dim" d="M45.00 250.00L1355.00 250.00"/><text x="45" y="266" class="small">1678295</text><text x="340" y="266" class="small">0.0</text><text x="510" y="266" class="small">4000.0</text><text x="680" y="266" class="small">18.0</text><text x="850" y="266" class="small">2500.0</text><text x="1020" y="266" class="small">2482.0</text><text x="1210" y="266" class="small">Arsip</text><path class="dim" d="M45.00 274.00L1355.00 274.00"/><text x="45" y="290" class="small">1678385</text><text x="340" y="290" class="small">1770.0</text><text x="510" y="290" class="small">4000.0</text><text x="680" y="290" class="small">18.0</text><text x="850" y="290" class="small">2500.0</text><text x="1020" y="290" class="small">2482.0</text><text x="1210" y="290" class="small">Arsip</text><path class="dim" d="M45.00 298.00L1355.00 298.00"/><text x="45" y="314" class="small">1678397</text><text x="340" y="314" class="small">3540.0</text><text x="510" y="314" class="small">4000.0</text><text x="680" y="314" class="small">18.0</text><text x="850" y="314" class="small">2500.0</text><text x="1020" y="314" class="small">2482.0</text><text x="1210" y="314" class="small">Arsip</text><path class="dim" d="M45.00 322.00L1355.00 322.00"/><text x="45" y="338" class="small">1678433</text><text x="340" y="338" class="small">4830.0</text><text x="510" y="338" class="small">4000.0</text><text x="680" y="338" class="small">18.0</text><text x="850" y="338" class="small">2500.0</text><text x="1020" y="338" class="small">2482.0</text><text x="1210" y="338" class="small">Arsip</text><path class="dim" d="M45.00 346.00L1355.00 346.00"/><text x="45" y="362" class="small">1682262</text><text x="340" y="362" class="small">6870.0</text><text x="510" y="362" class="small">4000.0</text><text x="680" y="362" class="small">18.0</text><text x="850" y="362" class="small">2500.0</text><text x="1020" y="362" class="small">2482.0</text><text x="1210" y="362" class="small">Arsip</text><path class="dim" d="M45.00 370.00L1355.00 370.00"/><text x="45" y="386" class="small">1678421</text><text x="340" y="386" class="small">7080.0</text><text x="510" y="386" class="small">4000.0</text><text x="680" y="386" class="small">18.0</text><text x="850" y="386" class="small">2500.0</text><text x="1020" y="386" class="small">2482.0</text><text x="1210" y="386" class="small">Arsip</text><path class="dim" d="M45.00 394.00L1355.00 394.00"/><text x="45" y="410" class="small">1690209</text><text x="340" y="410" class="small">8849.9</text><text x="510" y="410" class="small">4000.0</text><text x="680" y="410" class="small">18.0</text><text x="850" y="410" class="small">2500.0</text><text x="1020" y="410" class="small">2482.0</text><text x="1210" y="410" class="small">Arsip</text><path class="dim" d="M45.00 418.00L1355.00 418.00"/><text x="45" y="434" class="small">1678445</text><text x="340" y="434" class="small">10620.0</text><text x="510" y="434" class="small">4000.0</text><text x="680" y="434" class="small">18.0</text><text x="850" y="434" class="small">2500.0</text><text x="1020" y="434" class="small">2482.0</text><text x="1210" y="434" class="small">Arsip</text><path class="dim" d="M45.00 442.00L1355.00 442.00"/><text x="45" y="458" class="small">1682284</text><text x="340" y="458" class="small">12230.1</text><text x="510" y="458" class="small">4000.0</text><text x="680" y="458" class="small">18.0</text><text x="850" y="458" class="small">2500.0</text><text x="1020" y="458" class="small">2482.0</text><text x="1210" y="458" class="small">Arsip</text><path class="dim" d="M45.00 466.00L1355.00 466.00"/><text x="45" y="482" class="small">1682306</text><text x="340" y="482" class="small">12870.0</text><text x="510" y="482" class="small">4000.0</text><text x="680" y="482" class="small">18.0</text><text x="850" y="482" class="small">2500.0</text><text x="1020" y="482" class="small">2482.0</text><text x="1210" y="482" class="small">Arsip</text><path class="dim" d="M45.00 490.00L1355.00 490.00"/><text x="45" y="506" class="small">1678469</text><text x="340" y="506" class="small">14160.0</text><text x="510" y="506" class="small">4000.0</text><text x="680" y="506" class="small">18.0</text><text x="850" y="506" class="small">2500.0</text><text x="1020" y="506" class="small">2482.0</text><text x="1210" y="506" class="small">Arsip</text><path class="dim" d="M45.00 514.00L1355.00 514.00"/><text x="45" y="530" class="small">1678481</text><text x="340" y="530" class="small">15930.0</text><text x="510" y="530" class="small">4000.0</text><text x="680" y="530" class="small">18.0</text><text x="850" y="530" class="small">2500.0</text><text x="1020" y="530" class="small">2482.0</text><text x="1210" y="530" class="small">Arsip</text><path class="dim" d="M45.00 538.00L1355.00 538.00"/><text x="45" y="554" class="small">1678493</text><text x="340" y="554" class="small">17700.0</text><text x="510" y="554" class="small">4000.0</text><text x="680" y="554" class="small">18.0</text><text x="850" y="554" class="small">2500.0</text><text x="1020" y="554" class="small">2482.0</text><text x="1210" y="554" class="small">Arsip</text><path class="dim" d="M45.00 562.00L1355.00 562.00"/><text x="45" y="578" class="small">I5-P00</text><text x="340" y="578" class="small">5520.0</text><text x="510" y="578" class="small">4100.0</text><text x="680" y="578" class="small">11.0</text><text x="850" y="578" class="small">2296.0</text><text x="1020" y="578" class="small">2285.0</text><text x="1210" y="578" class="small">Usulan</text><path class="dim" d="M45.00 586.00L1355.00 586.00"/><text x="45" y="602" class="small">I5-P10</text><text x="340" y="602" class="small">6780.1</text><text x="510" y="602" class="small">4100.0</text><text x="680" y="602" class="small">11.0</text><text x="850" y="602" class="small">2296.0</text><text x="1020" y="602" class="small">2285.0</text><text x="1210" y="602" class="small">Usulan</text><path class="dim" d="M45.00 610.00L1355.00 610.00"/><text x="45" y="626" class="small">SC-L5-P00</text><text x="340" y="626" class="small">4900.0</text><text x="510" y="626" class="small">4633.0</text><text x="680" y="626" class="small">11.0</text><text x="850" y="626" class="small">2157.0</text><text x="1020" y="626" class="small">2146.0</text><text x="1210" y="626" class="small">Usulan</text><path class="dim" d="M45.00 634.00L1355.00 634.00"/><text x="45" y="650" class="small">SC-L5-P10</text><text x="340" y="650" class="small">5400.0</text><text x="510" y="650" class="small">4633.0</text><text x="680" y="650" class="small">11.0</text><text x="850" y="650" class="small">2157.0</text><text x="1020" y="650" class="small">2146.0</text><text x="1210" y="650" class="small">Usulan</text><path class="dim" d="M45.00 658.00L1355.00 658.00"/><text x="45" y="674" class="small">SC-R5-P00</text><text x="340" y="674" class="small">12300.1</text><text x="510" y="674" class="small">4633.0</text><text x="680" y="674" class="small">11.0</text><text x="850" y="674" class="small">2157.0</text><text x="1020" y="674" class="small">2146.0</text><text x="1210" y="674" class="small">Usulan</text><path class="dim" d="M45.00 682.00L1355.00 682.00"/><text x="45" y="698" class="small">SC-R5-P10</text><text x="340" y="698" class="small">12800.1</text><text x="510" y="698" class="small">4633.0</text><text x="680" y="698" class="small">11.0</text><text x="850" y="698" class="small">2157.0</text><text x="1020" y="698" class="small">2146.0</text><text x="1210" y="698" class="small">Usulan</text><path class="dim" d="M45.00 706.00L1355.00 706.00"/><text x="45" y="722" class="small">I5-P01</text><text x="340" y="722" class="small">5520.0</text><text x="510" y="722" class="small">4850.0</text><text x="680" y="722" class="small">11.0</text><text x="850" y="722" class="small">2296.0</text><text x="1020" y="722" class="small">2285.0</text><text x="1210" y="722" class="small">Usulan</text><path class="dim" d="M45.00 730.00L1355.00 730.00"/><text x="45" y="775" class="small">Kolom 97–120 dari 140; koordinat lokal dalam mm; titik nol mengikuti arsip geometri.</text><text x="45" y="800" class="small">Panjang solid adalah selisih elevasi luar. Angka ini bukan panjang potong final atau tinggi bersih pemasangan.</text><text x="45" y="825" class="small">Koordinat tidak mencakup toleransi, kemiringan lantai, lubang angkur atau keputusan sambungan.</text><path class="dim" d="M45.00 910.00L1355.00 910.00"/><text x="45" y="935" class="small">METTA · LOD 100 / KOORDINASI KONSEPTUAL · BELUM UNTUK FABRIKASI</text></svg>